<svg xmlns="http://www.w3.org/2000/svg" enable-background="new 0 0 363.12 293" viewBox="0 0 363.12 293"><path fill="#ffbdaf" d="M292.654,71.379c0,2.679-2.172,4.851-4.851,4.851c-2.679,0-4.851-2.172-4.851-4.851
				s2.172-4.851,4.851-4.851C290.482,66.528,292.654,68.7,292.654,71.379z"/><circle cx="87.418" cy="42.211" r="1.415" fill="#dce7ff"/><path fill="#00af9a" d="M90.643,46.585c0,0.781,0.633,1.415,1.415,1.415c0.781,0,1.414-0.633,1.414-1.415
					s-0.633-1.415-1.414-1.415C91.276,45.171,90.643,45.804,90.643,46.585z"/><path fill="#ffda58" d="M104.699,40.174c0,0.781,0.633,1.415,1.414,1.415s1.414-0.633,1.414-1.415
					c0-0.781-0.633-1.414-1.414-1.414S104.699,39.393,104.699,40.174z"/><circle cx="136.731" cy="254.555" r="4.056" fill="#ff65a7"/><g><path fill="#ffda58" d="M77.021,204.634l-2.807-8.455c-0.357-1.075-1.523-1.66-2.597-1.303l-8.455,2.808
				c-1.077,0.356-1.661,1.521-1.304,2.597l2.809,8.456c0.357,1.075,1.523,1.66,2.598,1.303l8.455-2.808
				C76.794,206.875,77.379,205.711,77.021,204.634z M75.164,205.561l-8.455,2.808c-0.153,0.051-0.32-0.033-0.371-0.186l-2.809-8.457
				c-0.051-0.154,0.033-0.32,0.186-0.371l8.457-2.807c0.153-0.051,0.32,0.032,0.371,0.186l2.807,8.455
				C75.401,205.343,75.317,205.51,75.164,205.561z"/></g><g><path fill="#eef3ff" d="M238.1,174.962l-20.44-8.065c-1.296-0.505-2.239-1.748-2.13-2.767l1.898-16.056
							c0.054-0.505,0.364-0.869,0.828-1.028c0.044-0.019,0.077-0.028,0.122-0.046l3.618-1.318c0.465-0.168,1.085-0.14,1.738,0.112
							l20.44,8.065c1.285,0.505,2.239,1.748,2.131,2.757l-1.898,16.065c-0.055,0.505-0.364,0.86-0.829,1.028l-3.596,1.308
							c-0.044,0.019-0.089,0.038-0.133,0.047C239.384,175.242,238.764,175.223,238.1,174.962z"/><path fill="#eef3ff" d="M301.367,146.229l-0.066,0.742l-0.388,4.373l-0.066,0.742l-1.018,0.365l-5.989,2.236
							l-1.018,0.388l-5.07-1.927l-1.871,16.584l5.071,2.004l5.281,9.288l-13.218,4.782l-12.145-4.782l7.395-9.288l5.524-2.004
							l1.96-17.348l-2.602-0.996l-0.83-0.321h-0.011l-8.857-3.365l-0.83-0.321l-1.528-0.576l-0.366,3.21l-0.232,2.126l-0.808,7.14
							l-5.082,9.399l-0.089,0.797l-0.52,4.484l-0.443,3.985l-0.089,0.786l-0.1,0.853l25.207,15.821v0.011l-4.706,5.171
							l-30.808,18.072l-28.174-16.922l0.31-2.735h0.022l-0.022-0.011l21.123-0.609l0.144-1.251l0.089-0.797l0.443-3.986l0.509-4.484
							l0.089-0.797l0.454-3.974l0.509-4.495l0.089-0.797l0.93-8.204l0.022-0.254l0.089-0.809l0.653-5.768l0.31-2.701l0.099-0.786
							l0.963-8.469l0.077-0.797l1.052-9.266l1.207-0.432l-0.808-0.31l-4.262-1.628l-0.432-0.166l-4.163-1.583l-0.841-0.321
							l-4.683-1.782l-4.163-1.583l-0.83-0.31l-9.698-3.697l-0.83-0.31l-8.868-3.376l-0.819-0.31h-0.011l-2.823-1.074l-5.347-2.037
							l-0.675-0.265h-0.011l-0.83-0.31l-4.694-1.794l-3.21-1.217l-0.952-0.365l-0.841-0.321l-4.683-1.782l-4.152-1.583h-0.011
							l-0.819-0.31h-0.011l-4.705-1.805h-0.033L176.7,139.73l2.17,2.258l24.843,9.798L202.75,160l14.547,5.724
							c1.672,0.676,2.923,2.292,2.768,3.609l-2.214,19.02l5.015,1.982c0.598,0.232,1.007,0.775,0.952,1.229l-0.343,2.934
							l-1.34,11.204c-0.022,0.232-0.166,0.387-0.365,0.465l-1.362,0.498c-0.199,0.077-0.476,0.066-0.775-0.056l-3.742-1.472
							l-0.343,3c-0.077,0.676-0.487,1.118-1.096,1.351l-3.277,1.196c0.055-0.033,0.111-0.056,0.166-0.089
							c-0.62,0.299-1.506,0.299-2.436-0.078l-27.909-11.004c-0.144,2.247-0.664,3.963-4.384,5.302l-17.779,6.443l-4.473-1.771
							c-0.321,0.841-0.775,1.804-1.384,2.911c-2.325,4.218-0.941,10.218,0.454,10.052c0.022,0,0.044,0,0.067-0.011
							c0,0,2.236-0.609,1.605,0.509c0,0-1.428,0.963-2.934,1.118h-0.708c-0.432-0.055-0.863-0.177-1.229-0.454
							c-1.838-1.295-1.871-1.616-1.871-1.638c0,0-0.598-0.675-0.863,0.598c-0.166,0.753-0.343,1.229-0.465,1.495h-0.853
							c0.122-0.498,0.432-1.859,0.31-2.314c-0.166,0.033-0.332,0.066-0.509,0.089h-0.709c-0.432-0.056-0.852-0.177-1.229-0.454
							c-1.838-1.284-1.882-1.616-1.882-1.639c0,0-0.598-0.675-0.852,0.598c-0.166,0.753-0.343,1.229-0.465,1.495h-0.852
							c0.133-0.553,0.487-2.181,0.255-2.414c-0.255-0.277-0.399-2.137,1.583-3.011c0,0,0-0.653-0.199-1.229
							c-0.044-0.133-0.1-0.277-0.177-0.388c-0.321-0.531-0.111-6.41,1.749-9.753l-8.093-3.222l0.166-1.628l7.783-2.823
							c-0.011-0.022-0.022-0.056-0.033-0.077c-0.974-2.048-0.874-3.687,0.288-5.58c0.376-0.521,0.819-1.008,1.218-1.417
							c0.509-0.498,1.074-0.963,1.683-1.428c0.664-0.498,1.351-1.118,1.76-1.871c-0.564-0.365-0.996-0.709-1.207-0.996
							l-13.528-5.336c-1.672-0.664-2.912-2.247-2.745-3.587l0.653-5.568l-16.163-6.388c-0.919-0.365-1.605-1.24-1.528-1.97
							l0.432-3.277c0.044-0.354,0.277-0.609,0.598-0.731c0.022-0.011,0.044-0.022,0.055-0.022l0.963-0.354
							c0.332-0.122,0.775-0.099,1.24,0.077l15.178,5.989l0.354-3.077l-6.808-2.69c-0.919-0.365-1.605-1.251-1.517-1.971l0.421-3.277
							c0.044-0.365,0.266-0.631,0.598-0.742c0.022-0.011,0.033-0.022,0.055-0.022l0.963-0.354c0.332-0.122,0.775-0.1,1.24,0.077
							l5.823,2.303l0.387-3.244l-13.008-5.126c-0.919-0.365-1.594-1.24-1.506-1.97l0.41-3.277c0.044-0.365,0.277-0.62,0.598-0.731
							c0.033-0.022,0.067-0.033,0.1-0.044l0.93-0.332c0.332-0.122,0.764-0.1,1.229,0.077l12.023,4.749l0.808-6.908
							c0.1-0.786,0.653-1.306,1.461-1.439l2.912-1.085c0.609-0.232,1.406-0.21,2.214,0.133l13.761,5.425l1.096-9.366l3.044-1.107
							l13.905,5.469l2.004,2.081l3.022-26.857l-2.734-1.03l-0.83-0.321l0.465-5.115h-0.011l0.077-0.73l1.007-0.377l6-2.247
							l1.007-0.376h0.011l0.819,0.321l4.163,1.583l4.694,1.783l0.83,0.321l4.174,1.583l4.683,1.782l0.841,0.321l4.152,1.583
							l4.683,1.782h0.011l0.83,0.321l6.045,2.292l2.823,1.085l0.83,0.31l8.868,3.376l0.83,0.321l9.687,3.676v0.011l0.819,0.31h0.011
							v0.011l4.174,1.583l4.683,1.782l0.841,0.31l4.14,1.583l4.705,1.794l2.07,0.775l2.934,1.129l4.694,1.783l0.83,0.321
							l6.034,2.292l2.834,1.074l0.83,0.321l8.846,3.365l0.83,0.321h0.011L301.367,146.229z"/><path fill="#eef3ff" d="M128.095,127.382l1.887-16.065c0.065-0.505,0.375-0.86,0.84-1.019
							c-0.011-0.009-0.011-0.009-0.011-0.009l3.739-1.355c0.465-0.177,1.085-0.149,1.738,0.103l20.44,8.065
							c1.296,0.505,2.251,1.748,2.131,2.766l-1.887,16.056c-0.066,0.505-0.364,0.86-0.829,1.028l-3.728,1.355
							c-0.465,0.187-1.085,0.168-1.749-0.094l-20.451-8.065C128.929,129.634,127.975,128.391,128.095,127.382z"/><path fill="#eef3ff" d="M216.455,234.152c-0.007,0.024-0.017,0.059-0.039,0.096l-1.295,3.377
							c-0.158,0.429-0.657,0.847-1.448,1.169l-25.151,10.324c-1.597,0.656-3.789,0.656-4.871,0L166.2,238.842
							c-0.548-0.322-0.744-0.752-0.56-1.193l1.319-3.461l-0.021,0.072c0.132-0.453,0.641-0.907,1.472-1.253l25.151-10.324
							c1.594-0.644,3.775-0.644,4.882,0l17.452,10.276C216.451,233.293,216.625,233.723,216.455,234.152z"/><path fill="#eef3ff" d="M88.09,138.991c-0.699,2.411-1.358,5.528-1.358,5.528s2.032,3.256-2.918,9.807
							c-1.562,2.081-1.977,3.749-2.525,5.911l-1.523,6.139c2.825-0.507,4.295,0.169,5.382,0.456
							c0.783,0.206,0.752,0.801-0.037,1.007c-2.75,0.698-7.433,1.978-10.663,2.411c-4.269,0.581-1.696-3.154-1.696-3.154
							s0.066,0.007,0.209,0.015c-0.066-0.008-0.142-0.022-0.208-0.037c0,0,0,0,0.001-0.007c0,0,0.072-0.243,0.2-0.654
							c0.026-0.051,0.04-0.103,0.056-0.162c-1.984,0.507-4.053,0.978-5.731,1.22c-4.283,0.625-1.709-3.132-1.709-3.132
							s0.001-0.007,0.012-0.015c-0.01-0.008-0.01-0.008-0.01-0.008c0.175-4.587,4.121-7.844,3.033-12.255
							c-1.337-5.447,0.937-6.785,2.299-7.756c0.559-0.397,1.058-0.882,1.058-0.882c1.026-1.389,1.49-4.073,0.681-7.565
							c-0.463-0.507-0.84-0.97-1.089-1.374c-1.752-2.83,1.101-3.896,3.076-4.279c0.023-0.015,0.057-0.022,0.079-0.022
							c1.285-0.323,2.533-0.279,2.533-0.279c0.046-0.191,0.093-0.382,0.151-0.581c-0.088-0.008-0.176-0.015-0.264-0.029
							c0,0-0.915-0.059-0.873-0.824c0.043-0.772-0.445-1.404-0.317-1.808c0.128-0.404,0.062-2.478,5.91-2.838
							c0.267-0.015,0.533-0.029,0.789-0.044l1.808-8.168c0.095-0.404,0.435-0.683,0.909-0.816c0.023-0.007,0.056-0.015,0.079-0.022
							l3.726-1.044c0.475-0.14,1.093-0.118,1.732,0.081l19.973,6.352c1.268,0.397,2.152,1.367,1.975,2.168l-2.793,12.63
							c-0.083,0.397-0.413,0.684-0.887,0.809l-0.587,0.162c-0.125,0.213-0.272,0.404-0.41,0.478c0,0-1.634,0.581-2.911,0.633
							c-0.4,0.022-0.77,0.081-1.163,0.162c-0.563,0.132-3.713,1.176-6.011,2.22c-1.543,0.699-3.649,0.889-5.348,0.485
							C90.544,139.373,89.414,139.38,88.09,138.991z"/><path fill="#eef3ff" d="M131.834,187.525c0.011-0.028,0.022-0.047,0.022-0.075l-0.567,4.822
							c-0.044,0.346-0.431,0.683-1.139,0.944l-0.609,0.224l-0.076,0.645l0.565,0.224c0.72,0.29,1.02,0.664,0.921,1.037
							c0.011-0.028,0.022-0.047,0.022-0.075l-0.578,4.823c-0.033,0.346-0.42,0.682-1.139,0.944l-0.609,0.224l-0.076,0.645
							l0.576,0.225c0.698,0.271,1.009,0.645,0.921,1.009c0.011,0.009,0.011,0.019,0,0.028l-0.556,4.748
							c-0.033,0.336-0.42,0.682-1.139,0.944l-15.345,5.589c-1.449,0.533-3.697,0.533-5.026,0.009l-14.181-5.598
							c-0.676-0.262-0.986-0.617-0.943-0.962l0.567-4.823l0,0.066c-0.001-0.365,0.386-0.738,1.139-1.009l0.608-0.225l0.076-0.645
							l-0.565-0.224c-0.665-0.262-0.987-0.607-0.943-0.953l0.567-4.832l0,0.056c0.011-0.364,0.397-0.719,1.139-1l0.608-0.224
							l0.076-0.636l-0.565-0.224c-0.665-0.271-0.975-0.617-0.932-0.963l0.556-4.776c0.01-0.355,0.397-0.71,1.15-0.991l15.345-5.598
							c1.438-0.523,3.697-0.523,5.026,0l14.18,5.598C131.634,186.777,131.933,187.161,131.834,187.525z"/></g><g><path fill="#8c8ce5" d="M235.775,107.461l-0.074,24.549c0,0.769-0.267,1.317-0.711,1.569l-3.587,2.094
					c0.429-0.252-24.313-43.102-24.757-42.85l3.587-2.079c0.444-0.267,1.066-0.222,1.747,0.163l21.351,12.334
					C234.679,104.011,235.775,105.906,235.775,107.461z"/><path fill="#4c4dc3" d="M229.74,105.328l-21.355-12.329c-1.352-0.781-2.452-0.153-2.456,1.399l-0.07,24.55
				c-0.004,1.554,1.089,3.447,2.441,4.227l21.355,12.329c1.352,0.78,2.452,0.154,2.456-1.4l0.07-24.55
				C232.185,108.002,231.092,106.108,229.74,105.328z"/><path fill="#fff" d="M224.977,120.174c0.608,1.11,0.909,2.201,0.906,3.277c-0.003,1.075-0.313,1.818-0.932,2.227
							c-0.618,0.41-1.385,0.351-2.299-0.177c-0.915-0.528-1.675-1.346-2.282-2.457c-0.608-1.109-0.91-2.2-0.907-3.276
							c0.003-1.074,0.314-1.816,0.933-2.226s1.386-0.35,2.3,0.178C223.609,118.248,224.369,119.065,224.977,120.174z
							 M223.584,123.457c0.227-0.203,0.342-0.549,0.343-1.038c0.001-0.488-0.118-0.969-0.357-1.441
							c-0.241-0.474-0.534-0.81-0.881-1.011c-0.348-0.201-0.635-0.2-0.863,0.004c-0.227,0.203-0.342,0.549-0.343,1.037
							c-0.001,0.489,0.118,0.97,0.358,1.442c0.24,0.473,0.534,0.81,0.88,1.01C223.068,123.661,223.356,123.66,223.584,123.457"/><polygon fill="#fff" points="222.478 108.1 225.22 109.683 214.287 120.475 211.544 118.891"/><path fill="#fff" d="M214.239,110.733c-0.913-0.527-1.676-1.346-2.281-2.455c-0.608-1.11-0.911-2.202-0.908-3.277
						c0.003-1.076,0.315-1.816,0.934-2.227c0.618-0.409,1.385-0.35,2.299,0.178c0.914,0.528,1.674,1.346,2.282,2.456
						c0.607,1.109,0.91,2.2,0.907,3.276c-0.003,1.075-0.314,1.817-0.933,2.227C215.92,111.321,215.153,111.261,214.239,110.733z
						 M213.371,105.13c-0.226,0.203-0.342,0.549-0.343,1.037c-0.001,0.489,0.118,0.97,0.359,1.443
						c0.239,0.473,0.532,0.809,0.88,1.01c0.347,0.2,0.634,0.199,0.862-0.004c0.227-0.203,0.342-0.549,0.343-1.038
						c0.001-0.488-0.117-0.968-0.357-1.441c-0.241-0.474-0.533-0.81-0.881-1.011C213.887,104.926,213.599,104.927,213.371,105.13"/><path fill="#385089" d="M175.572,183.153c0.012,4.268-2.999,9.483-6.714,11.628l-11.843,6.838l-24.791-14.407
								l11.843-6.839c3.714-2.144,6.725-7.359,6.714-11.628L175.572,183.153z"/><polygon fill="#293a72" points="157.022 204.116 132.231 189.709 132.224 187.213 157.015 201.62"/><path fill="#2e4384" d="M175.572,183.153c0.007,2.37-0.92,5.032-2.38,7.298l-24.791-14.406
								c1.46-2.267,2.387-4.928,2.38-7.299l-0.041-14.791l24.791,14.406L175.572,183.153z"/><polygon fill="#385089" points="175.531 168.362 150.74 153.955 152.912 152.701 177.703 167.107"/><path fill="#1e3063" d="M177.703,167.107l0.042,14.792c0.016,5.644,1.241,9.535-3.671,12.371l-17.052,9.845
								l-0.007-2.496l11.844-6.838c3.714-2.144,6.725-7.36,6.713-11.628l-0.042-14.792L177.703,167.107z"/><path fill="#385089" d="M207.184,136.375c1.745,1.007,3.17,3.475,3.164,5.481l-0.143,59.321
								c-0.006,2.038-1.44,2.822-3.185,1.815l-79.049-45.639c-1.745-1.007-3.17-3.443-3.164-5.481l0.143-59.321
								c0.006-2.006,1.44-2.822,3.185-1.815L207.184,136.375z"/><polygon fill="#d0ddff" points="127.892 93.997 127.747 150.438 207.263 196.346 207.408 139.906"/><path fill="#293a72" d="M126.257,90.352c0.538-0.136,1.164,0,1.881,0.402l79.062,45.599
								c1.747,1.032,3.135,3.495,3.135,5.512l-0.134,59.31c0,1.032-0.358,1.704-0.896,2.063l3.136-1.837
								c0.582-0.359,0.94-1.03,0.94-2.06l0.135-59.312c0-2.017-1.433-4.48-3.18-5.51l-79.061-45.601
								c-0.851-0.538-1.657-0.582-2.24-0.223L126.257,90.352z"/><polygon fill="#c2d3f9" points="271.981 143.698 265.64 157.899 278.324 165.221 278.323 143.698"/><polygon fill="#aec7f4" points="291.007 157.899 284.665 143.698 278.323 143.698 278.324 165.221 278.324 165.221"/><polygon fill="#dce7ff" points="271.981 143.698 278.323 147.359 284.665 143.698 278.323 140.037"/><g><path fill="#aec7f4" d="M277.273,109.743v34.153c0,0.77,2.1,0.77,2.1,0v-35.472L277.273,109.743z"/></g><g><polygon fill="#aec7f4" points="284.08 196.572 284.08 200.745 253.054 218.66 222.029 200.745 222.029 196.572"/><polygon fill="#dce7ff" points="222.032 196.567 253.057 214.478 284.081 196.566 253.057 178.655"/><polygon fill="#ffda58" points="266.845 194.514 266.845 196.365 252.454 204.672 238.073 196.365 238.073 194.514 241.282 194.514 252.454 188.067 263.636 194.514"/><polygon fill="#fd9c3d" points="266.845 194.511 252.454 202.819 238.073 194.511 252.454 186.214"/><g><polygon fill="#ffda58" points="251.321 91.561 251.321 142.119 252.516 142.809 253.71 142.119 253.71 91.561 252.516 90.871"/><polygon fill="#ffda58" points="252.515 92.251 253.71 91.561 253.71 142.119 252.515 142.809"/><polygon fill="#febd57" points="252.515 92.251 251.321 91.561 251.321 142.119 252.515 142.809"/><polygon fill="#fd9c3d" points="251.321 91.561 252.515 92.251 253.71 91.561 252.515 90.871"/><path fill="#ffda58" d="M252.516,117.185l-9.471-5.468l9.47-5.468l9.471,5.468L252.516,117.185z
													 M245.396,111.717l7.12,4.11l7.12-4.111l-7.12-4.11L245.396,111.717z"/><path fill="#fd9c3d" d="M252.516,115.966l-9.471-5.468l9.47-5.468l9.471,5.468L252.516,115.966z
														 M245.396,110.499l7.12,4.11l7.12-4.111l-7.12-4.11L245.396,110.499z"/><path fill="#ffda58" d="M252.516,131.344l-9.471-5.468l9.47-5.468l9.471,5.468L252.516,131.344z
													 M245.396,125.877l7.12,4.11l7.12-4.111l-7.12-4.11L245.396,125.877z"/><path fill="#fd9c3d" d="M252.516,130.126l-9.471-5.468l9.47-5.468l9.471,5.468L252.516,130.126z
														 M245.396,124.659l7.12,4.11l7.12-4.111l-7.12-4.11L245.396,124.659z"/><path fill="#ffda58" d="M252.516,145.504l-9.471-5.468l9.47-5.468l9.471,5.468L252.516,145.504z
													 M245.396,140.037l7.12,4.11l7.12-4.11l-7.12-4.11L245.396,140.037z"/><path fill="#fd9c3d" d="M252.516,144.286l-9.471-5.468l9.47-5.468l9.471,5.468L252.516,144.286z
														 M245.396,138.818l7.12,4.11l7.12-4.111l-7.12-4.11L245.396,138.818z"/><g><path fill="#ffda58" d="M252.516,159.664l-9.471-5.468l9.47-5.468l9.471,5.468L252.516,159.664z
													 M245.396,154.197l7.12,4.11l7.12-4.111l-7.12-4.11L245.396,154.197z"/><path fill="#fd9c3d" d="M252.516,158.446l-9.471-5.468l9.47-5.468l9.471,5.468L252.516,158.446z
														 M245.396,152.978l7.12,4.11l7.12-4.111l-7.12-4.11L245.396,152.978z"/></g><g><path fill="#ffda58" d="M252.516,159.664l-9.471-5.468l9.47-5.468l9.471,5.468L252.516,159.664z
													 M245.396,154.197l7.12,4.11l7.12-4.111l-7.12-4.11L245.396,154.197z"/><path fill="#fd9c3d" d="M252.516,158.446l-9.471-5.468l9.47-5.468l9.471,5.468L252.516,158.446z
														 M245.396,152.978l7.12,4.11l7.12-4.111l-7.12-4.11L245.396,152.978z"/></g><g><path fill="#ffda58" d="M252.516,173.824l-9.471-5.468l9.47-5.468l9.471,5.468L252.516,173.824z
													 M245.396,168.356l7.12,4.11l7.12-4.111l-7.12-4.11L245.396,168.356z"/><path fill="#fd9c3d" d="M252.516,172.606l-9.471-5.468l9.47-5.468l9.471,5.468L252.516,172.606z
														 M245.396,167.138l7.12,4.11l7.12-4.111l-7.12-4.11L245.396,167.138z"/></g><g><path fill="#ffda58" d="M252.516,173.824l-9.471-5.468l9.47-5.468l9.471,5.468L252.516,173.824z
													 M245.396,168.356l7.12,4.11l7.12-4.111l-7.12-4.11L245.396,168.356z"/><path fill="#fd9c3d" d="M252.516,172.606l-9.471-5.468l9.47-5.468l9.471,5.468L252.516,172.606z
														 M245.396,167.138l7.12,4.11l7.12-4.111l-7.12-4.11L245.396,167.138z"/></g><g><path fill="#ffda58" d="M252.516,187.984l-9.471-5.468l9.47-5.468l9.471,5.468L252.516,187.984z
													 M245.396,182.516l7.12,4.11l7.12-4.111l-7.12-4.11L245.396,182.516z"/><path fill="#fd9c3d" d="M252.516,186.765l-9.471-5.468l9.47-5.468l9.471,5.468L252.516,186.765z
														 M245.396,181.298l7.12,4.11l7.12-4.111l-7.12-4.11L245.396,181.298z"/></g><g><polygon fill="#ffda58" points="243.045 96.339 243.045 146.897 244.239 147.587 245.433 146.897 245.433 96.339 244.239 95.649"/><polygon fill="#ffda58" points="244.239 97.029 245.434 96.339 245.434 146.897 244.239 147.587"/><polygon fill="#febd57" points="244.239 97.029 243.044 96.339 243.044 146.897 244.239 147.587"/><polygon fill="#fd9c3d" points="243.044 96.339 244.239 97.029 245.434 96.339 244.239 95.649"/><g><polygon fill="#ffda58" points="259.597 96.339 259.597 146.897 260.792 147.587 261.986 146.897 261.986 96.339 260.792 95.649"/><polygon fill="#ffda58" points="260.791 97.029 261.986 96.339 261.986 146.897 260.791 147.587"/><polygon fill="#febd57" points="260.791 97.029 259.597 96.339 259.597 146.897 260.791 147.587"/><polygon fill="#fd9c3d" points="259.597 96.339 260.791 97.029 261.986 96.339 260.791 95.649"/></g><g><polygon fill="#ffda58" points="251.321 101.126 251.321 151.685 252.516 152.374 253.71 151.685 253.71 101.126 252.516 100.437"/><polygon fill="#ffda58" points="252.515 101.816 253.71 101.126 253.71 151.684 252.515 152.374"/><polygon fill="#febd57" points="252.515 101.816 251.321 101.126 251.321 151.684 252.515 152.374"/><polyline fill="#ffda58" points="243.045 96.339 243.045 161.057 244.239 161.746 245.433 161.057 245.433 96.339"/><polyline fill="#ffda58" points="245.434 96.339 245.434 161.056 244.239 161.746 244.239 97.029"/><polyline fill="#febd57" points="243.044 96.339 243.044 161.056 244.239 161.746 244.239 97.029"/><polyline fill="#ffda58" points="259.597 96.339 259.597 161.057 260.792 161.746 261.986 161.057 261.986 96.339"/><polyline fill="#ffda58" points="261.986 96.339 261.986 161.056 260.791 161.746 260.791 97.029"/><polyline fill="#febd57" points="259.597 96.339 259.597 161.056 260.791 161.746 260.791 97.029"/><polyline fill="#ffda58" points="251.321 101.126 251.321 165.844 252.516 166.534 253.71 165.844 253.71 101.126"/><polyline fill="#ffda58" points="253.71 101.126 253.71 165.844 252.515 166.534 252.515 101.816"/><polyline fill="#febd57" points="251.321 101.126 251.321 165.844 252.515 166.534 252.515 101.816"/><polygon fill="#ffda58" points="244.239 111.188 244.239 175.906 245.434 175.216 245.434 110.499"/><polygon fill="#febd57" points="243.044 110.499 243.044 175.216 244.239 175.906 244.239 111.188"/><polygon fill="#ffda58" points="260.791 111.188 260.791 175.906 261.986 175.216 261.986 110.499"/><polygon fill="#febd57" points="259.597 110.499 259.597 175.216 260.791 175.906 260.791 111.188"/><polygon fill="#ffda58" points="252.515 115.976 252.515 180.693 253.71 180.004 253.71 115.286"/><polygon fill="#febd57" points="251.321 115.286 251.321 180.004 252.515 180.693 252.515 115.976"/><polyline fill="#ffda58" points="245.434 129.998 245.434 194.716 244.239 195.406 244.239 130.688"/><polyline fill="#febd57" points="243.044 129.998 243.044 194.716 244.239 195.406 244.239 130.688"/><polyline fill="#ffda58" points="261.986 129.998 261.986 194.716 260.791 195.406 260.791 130.688"/><polyline fill="#febd57" points="259.597 129.998 259.597 194.716 260.791 195.406 260.791 130.688"/><polyline fill="#ffda58" points="253.71 134.786 253.71 199.503 252.515 200.193 252.515 135.476"/><polyline fill="#febd57" points="251.321 134.786 251.321 199.503 252.515 200.193 252.515 135.476"/><g><polygon fill="#fd9c3d" points="251.321 101.126 252.515 101.816 253.71 101.126 252.515 100.437"/></g></g></g><g><polygon fill="#ffda58" points="260.792 96.903 260.792 98.121 252.516 93.343 244.239 98.121 244.239 96.903 252.516 92.125"/></g><g><polygon fill="#fd9c3d" points="261.984 96.338 252.514 101.806 243.044 96.338 252.514 90.87"/></g><g><polygon fill="#ffda58" points="252.516 101.807 244.239 97.029 244.239 98.247 252.516 103.025 260.791 98.247 260.791 97.029"/></g></g><g><polygon fill="#ffda58" points="229.848 79.915 193.757 59.785 193.74 58.658 194.708 58.08 230.8 78.21 230.816 79.337"/><polygon fill="#ffda58" points="229.831 78.787 230.799 78.209 194.708 58.08 193.74 58.658"/><polygon fill="#febd57" points="229.831 78.787 229.848 79.915 193.757 59.786 193.74 58.658"/><polygon fill="#fd9c3d" points="229.848 79.915 229.831 78.787 230.799 78.209 230.816 79.337"/><path fill="#ffda58" d="M219.706,64.276l0.132,8.938l-7.674,4.584l-0.132-8.938L219.706,64.276z M218.869,72.674
													l-0.099-6.719l-5.769,3.446l0.1,6.719L218.869,72.674z"/><path fill="#fd9c3d" d="M220.576,64.762l0.132,8.938l-7.674,4.584l-0.132-8.938L220.576,64.762z
														 M219.739,73.159l-0.1-6.719l-5.769,3.446l0.1,6.719L219.739,73.159z"/><path fill="#ffda58" d="M209.598,58.639l0.132,8.938l-7.674,4.584l-0.132-8.938L209.598,58.639z M208.761,67.036
													l-0.099-6.719l-5.769,3.446l0.1,6.719L208.761,67.036z"/><path fill="#fd9c3d" d="M210.467,59.124l0.132,8.938l-7.674,4.584l-0.132-8.938L210.467,59.124z
														 M209.631,67.521l-0.1-6.719l-5.769,3.446l0.1,6.719L209.631,67.521z"/><path fill="#ffda58" d="M199.49,53.001l0.132,8.938l-7.674,4.584l-0.132-8.938L199.49,53.001z M198.653,61.398
													l-0.1-6.719l-5.769,3.446l0.1,6.719L198.653,61.398z"/><path fill="#fd9c3d" d="M200.359,53.486l0.132,8.938l-7.674,4.584l-0.132-8.938L200.359,53.486z
														 M199.523,61.883l-0.1-6.719l-5.769,3.446l0.099,6.719L199.523,61.883z"/><path fill="#ffda58" d="M189.381,47.364l0.132,8.938l-7.674,4.584l-0.132-8.938L189.381,47.364z M188.545,55.761
													l-0.1-6.719l-5.769,3.446l0.1,6.719L188.545,55.761z"/><path fill="#fd9c3d" d="M190.251,47.849l0.132,8.938l-7.674,4.584l-0.132-8.938L190.251,47.849z
														 M189.415,56.246l-0.1-6.719l-5.769,3.446l0.1,6.719L189.415,56.246z"/><g><path fill="#ffda58" d="M189.381,47.364l0.132,8.938l-7.674,4.584l-0.132-8.938L189.381,47.364z M188.545,55.761
													l-0.1-6.719l-5.769,3.446l0.1,6.719L188.545,55.761z"/><path fill="#fd9c3d" d="M190.251,47.849l0.132,8.938l-7.674,4.584l-0.132-8.938L190.251,47.849z
														 M189.415,56.246l-0.1-6.719l-5.769,3.446l0.1,6.719L189.415,56.246z"/></g><g><path fill="#ffda58" d="M179.273,41.726l0.132,8.938l-7.674,4.584l-0.132-8.938L179.273,41.726z M178.437,50.123
													l-0.1-6.719l-5.769,3.446l0.099,6.719L178.437,50.123z"/><path fill="#fd9c3d" d="M180.143,42.211l0.132,8.938l-7.674,4.584l-0.132-8.938L180.143,42.211z
														 M179.307,50.608l-0.1-6.719l-5.769,3.446l0.1,6.719L179.307,50.608z"/></g><g><path fill="#ffda58" d="M179.273,41.726l0.132,8.938l-7.674,4.584l-0.132-8.938L179.273,41.726z M178.437,50.123
													l-0.1-6.719l-5.769,3.446l0.099,6.719L178.437,50.123z"/><path fill="#fd9c3d" d="M180.143,42.211l0.132,8.938l-7.674,4.584l-0.132-8.938L180.143,42.211z
														 M179.307,50.608l-0.1-6.719l-5.769,3.446l0.1,6.719L179.307,50.608z"/></g><g><path fill="#385089" d="M166.794,101.137V46.543h-1.443v55.272c0,0.398,0.323,0.722,0.721,0.722
										c2.53,0,4.589,2.058,4.589,4.588s-2.059,4.588-4.589,4.588c-0.163,0-0.323-0.011-0.482-0.028v1.451
										c0.159,0.012,0.32,0.02,0.482,0.02c3.326,0,6.031-2.706,6.031-6.031C172.104,104.043,169.781,101.494,166.794,101.137z"/></g><g><path fill="#ffda58" d="M169.165,36.088l0.132,8.938l-7.674,4.584l-0.132-8.938L169.165,36.088z M168.329,44.486
													l-0.1-6.719l-5.769,3.446l0.1,6.719L168.329,44.486z"/><path fill="#fd9c3d" d="M170.035,36.574l0.132,8.938l-7.674,4.584l-0.132-8.938L170.035,36.574z
														 M169.198,44.971l-0.099-6.719l-5.769,3.446l0.1,6.719L169.198,44.971z"/></g><g><polygon fill="#ffda58" points="223.142 83.921 187.051 63.791 187.034 62.664 188.002 62.086 224.093 82.215 224.11 83.343"/><polygon fill="#ffda58" points="223.125 82.793 224.093 82.215 188.002 62.086 187.034 62.664"/><polygon fill="#febd57" points="223.125 82.793 223.142 83.921 187.051 63.792 187.034 62.664"/><polygon fill="#fd9c3d" points="223.142 83.921 223.125 82.793 224.093 82.215 224.11 83.343"/><g><polygon fill="#ffda58" points="229.733 72.105 193.641 51.975 193.624 50.848 194.592 50.27 230.684 70.399 230.701 71.526"/><polygon fill="#ffda58" points="229.716 70.977 230.684 70.399 194.592 50.27 193.624 50.848"/><polygon fill="#febd57" points="229.716 70.977 229.732 72.105 193.641 51.976 193.624 50.848"/><polygon fill="#fd9c3d" points="229.732 72.105 229.716 70.977 230.684 70.399 230.7 71.527"/></g><g><polygon fill="#ffda58" points="223.02 76.106 186.928 55.977 186.912 54.85 187.879 54.272 223.971 74.401 223.988 75.528"/><polygon fill="#ffda58" points="223.003 74.979 223.971 74.401 187.88 54.272 186.912 54.85"/><polygon fill="#febd57" points="223.003 74.979 223.02 76.106 186.928 55.977 186.912 54.85"/><polyline fill="#ffda58" points="223.142 83.921 176.943 58.154 176.926 57.026 177.894 56.448 224.093 82.215"/><polyline fill="#ffda58" points="224.093 82.215 177.894 56.448 176.926 57.027 223.125 82.793"/><polyline fill="#febd57" points="223.142 83.921 176.943 58.154 176.926 57.027 223.125 82.793"/><polyline fill="#ffda58" points="229.733 72.105 183.533 46.338 183.516 45.21 184.484 44.632 230.684 70.399"/><polyline fill="#ffda58" points="230.684 70.399 184.484 44.632 183.516 45.21 229.716 70.977"/><polyline fill="#febd57" points="229.732 72.105 183.533 46.338 183.516 45.21 229.716 70.977"/><polyline fill="#ffda58" points="223.02 76.106 176.82 50.339 176.803 49.212 177.771 48.634 223.971 74.401"/><polyline fill="#ffda58" points="223.971 74.401 177.772 48.634 176.803 49.212 223.003 74.979"/><polyline fill="#febd57" points="223.02 76.106 176.82 50.34 176.803 49.212 223.003 74.979"/><polygon fill="#ffda58" points="167.786 50.811 166.818 51.389 213.017 77.156 213.985 76.577"/><polygon fill="#febd57" points="213.017 77.156 166.818 51.389 166.835 52.516 213.034 78.283"/><polygon fill="#ffda58" points="174.376 38.995 173.408 39.573 219.607 65.34 220.576 64.762"/><polygon fill="#febd57" points="219.607 65.34 173.408 39.573 173.425 40.7 219.624 66.467"/><polygon fill="#ffda58" points="167.663 42.996 166.695 43.575 212.895 69.342 213.863 68.763"/><polygon fill="#febd57" points="212.895 69.342 166.695 43.575 166.712 44.702 212.911 70.469"/><polygon fill="#ffda58" points="177.387 58.401 161.631 49.613 162.477 48.968 163.444 48.39 177.387 56.166"/><polygon fill="#febd57" points="199.097 69.392 161.614 48.487 161.631 49.614 199.114 70.52"/><polyline fill="#ffda58" points="206.655 56.998 169.172 36.092 168.204 36.67 205.687 57.576"/><polyline fill="#febd57" points="205.704 58.703 169.084 38.279 169.067 37.152 205.687 57.576"/><polyline fill="#ffda58" points="199.943 61 162.46 40.094 161.491 40.672 198.975 61.578"/><polygon fill="#febd57" points="198.975 61.578 161.491 40.672 161.508 41.8 198.991 62.705"/><g><polygon fill="#fd9c3d" points="223.02 76.106 223.003 74.979 223.971 74.401 223.988 75.528"/></g></g></g><g><polygon fill="#ffda58" points="291.367 114.227 255.275 94.097 255.259 92.97 256.227 92.392 292.318 112.521 292.335 113.648"/><polygon fill="#ffda58" points="291.35 113.099 292.318 112.521 256.227 92.392 255.259 92.97"/><polygon fill="#febd57" points="291.35 113.099 291.367 114.227 255.275 94.098 255.259 92.97"/><polygon fill="#fd9c3d" points="291.367 114.227 291.35 113.099 292.318 112.521 292.335 113.649"/><path fill="#ffda58" d="M281.224,98.588l0.132,8.938l-7.674,4.584l-0.132-8.938L281.224,98.588z
													 M280.388,106.985l-0.099-6.719l-5.769,3.446l0.1,6.719L280.388,106.985z"/><path fill="#fd9c3d" d="M282.094,99.073l0.132,8.938l-7.674,4.584l-0.133-8.938L282.094,99.073z
														 M281.258,107.471l-0.1-6.719l-5.769,3.446l0.099,6.719L281.258,107.471z"/><path fill="#ffda58" d="M271.116,92.951l0.132,8.938l-7.674,4.584l-0.132-8.938L271.116,92.951z M270.28,101.348
													l-0.099-6.719l-5.769,3.446l0.1,6.719L270.28,101.348z"/><path fill="#fd9c3d" d="M271.986,93.436l0.132,8.938l-7.674,4.584l-0.132-8.938L271.986,93.436z
														 M271.149,101.833l-0.099-6.719l-5.769,3.446l0.099,6.719L271.149,101.833z"/><path fill="#ffda58" d="M261.008,87.313l0.132,8.938l-7.674,4.584l-0.132-8.938L261.008,87.313z M260.172,95.71
													l-0.099-6.719l-5.769,3.446l0.1,6.719L260.172,95.71z"/><path fill="#fd9c3d" d="M261.878,87.798l0.132,8.938l-7.674,4.584l-0.132-8.938L261.878,87.798z
														 M261.041,96.195l-0.099-6.719l-5.769,3.446l0.099,6.719L261.041,96.195z"/><g><path fill="#ffda58" d="M250.9,81.675l0.132,8.938l-7.674,4.584l-0.132-8.938L250.9,81.675z M250.063,90.073
													l-0.099-6.719l-5.769,3.446l0.099,6.719L250.063,90.073z"/><path fill="#fd9c3d" d="M251.77,82.161l0.132,8.938l-7.674,4.584l-0.132-8.938L251.77,82.161z M250.933,90.558
														l-0.1-6.719l-5.769,3.446l0.099,6.719L250.933,90.558z"/></g><g><path fill="#ffda58" d="M250.9,81.675l0.132,8.938l-7.674,4.584l-0.132-8.938L250.9,81.675z M250.063,90.073
													l-0.099-6.719l-5.769,3.446l0.099,6.719L250.063,90.073z"/><path fill="#fd9c3d" d="M251.77,82.161l0.132,8.938l-7.674,4.584l-0.132-8.938L251.77,82.161z M250.933,90.558
														l-0.1-6.719l-5.769,3.446l0.099,6.719L250.933,90.558z"/></g><g><path fill="#ffda58" d="M240.792,76.038l0.132,8.938l-7.674,4.584l-0.132-8.938L240.792,76.038z M239.955,84.435
													l-0.099-6.719l-5.769,3.446l0.1,6.719L239.955,84.435z"/><path fill="#fd9c3d" d="M241.662,76.523l0.132,8.938l-7.674,4.584l-0.132-8.938L241.662,76.523z M240.825,84.92
														l-0.1-6.719l-5.769,3.446l0.1,6.719L240.825,84.92z"/></g><g><path fill="#ffda58" d="M240.792,76.038l0.132,8.938l-7.674,4.584l-0.132-8.938L240.792,76.038z M239.955,84.435
													l-0.099-6.719l-5.769,3.446l0.1,6.719L239.955,84.435z"/><path fill="#fd9c3d" d="M241.662,76.523l0.132,8.938l-7.674,4.584l-0.132-8.938L241.662,76.523z M240.825,84.92
														l-0.1-6.719l-5.769,3.446l0.1,6.719L240.825,84.92z"/></g><g><path fill="#ffda58" d="M230.684,70.4l0.132,8.938l-7.674,4.584l-0.132-8.938L230.684,70.4z M229.847,78.797
													l-0.1-6.719l-5.769,3.446l0.1,6.719L229.847,78.797z"/><path fill="#fd9c3d" d="M231.553,70.885l0.132,8.938l-7.674,4.584l-0.132-8.938L231.553,70.885z
														 M230.717,79.283l-0.1-6.719l-5.769,3.446l0.1,6.719L230.717,79.283z"/></g><g><polygon fill="#ffda58" points="284.661 118.232 248.569 98.103 248.552 96.976 249.52 96.398 285.612 116.527 285.629 117.654"/><polygon fill="#ffda58" points="284.644 117.105 285.612 116.527 249.521 96.398 248.553 96.976"/><polygon fill="#febd57" points="284.644 117.105 284.66 118.233 248.569 98.104 248.553 96.976"/><polygon fill="#fd9c3d" points="284.66 118.233 284.644 117.105 285.612 116.527 285.629 117.655"/><g><polygon fill="#ffda58" points="291.251 106.416 255.16 86.287 255.143 85.16 256.111 84.582 292.202 104.711 292.219 105.838"/><polygon fill="#ffda58" points="291.234 105.289 292.202 104.711 256.111 84.582 255.143 85.16"/><polygon fill="#febd57" points="291.234 105.289 291.251 106.417 255.16 86.287 255.143 85.16"/><polygon fill="#fd9c3d" points="291.251 106.417 291.234 105.289 292.202 104.711 292.219 105.838"/></g><g><polygon fill="#ffda58" points="284.539 110.418 248.447 90.289 248.43 89.161 249.398 88.583 285.49 108.713 285.506 109.84"/><polygon fill="#ffda58" points="284.521 109.291 285.49 108.713 249.398 88.583 248.43 89.162"/><polygon fill="#febd57" points="284.521 109.291 284.538 110.418 248.447 90.289 248.43 89.162"/><polyline fill="#ffda58" points="284.661 118.232 238.461 92.465 238.444 91.338 239.412 90.76 285.612 116.527"/><polygon fill="#ffda58" points="239.413 90.76 238.444 91.339 284.644 117.105 285.612 116.527"/><polygon fill="#febd57" points="284.644 117.105 238.444 91.339 238.461 92.466 284.661 118.233"/><polyline fill="#ffda58" points="291.251 106.416 245.051 80.649 245.035 79.522 246.003 78.944 292.202 104.711"/><polygon fill="#ffda58" points="246.003 78.944 245.035 79.522 291.234 105.289 292.202 104.711"/><polygon fill="#febd57" points="291.234 105.289 245.035 79.522 245.052 80.65 291.251 106.417"/><polyline fill="#ffda58" points="284.539 110.418 238.339 84.651 238.322 83.524 239.29 82.946 285.49 108.713"/><polygon fill="#ffda58" points="239.29 82.946 238.322 83.524 284.521 109.291 285.49 108.713"/><polygon fill="#febd57" points="284.521 109.291 238.322 83.524 238.339 84.652 284.538 110.418"/><polyline fill="#ffda58" points="275.504 110.889 229.304 85.123 228.336 85.701 274.536 111.468"/><polyline fill="#febd57" points="274.552 112.595 228.353 86.828 228.336 85.701 274.536 111.468"/><polyline fill="#ffda58" points="282.094 99.073 235.895 73.307 234.927 73.885 281.126 99.651"/><polyline fill="#febd57" points="281.143 100.779 234.943 75.012 234.927 73.885 281.126 99.651"/><polyline fill="#ffda58" points="275.381 103.075 229.182 77.308 228.214 77.886 274.413 103.653"/><polyline fill="#febd57" points="274.43 104.781 228.231 79.014 228.214 77.886 274.413 103.653"/><polygon fill="#ffda58" points="238.905 92.713 223.149 83.925 223.995 83.28 224.963 82.701 238.905 90.477"/><polyline fill="#febd57" points="260.632 104.831 223.149 83.926 223.132 82.798 260.616 103.704"/><polyline fill="#ffda58" points="268.174 91.31 230.691 70.404 229.723 70.982 267.206 91.888"/><polyline fill="#febd57" points="267.223 93.015 230.602 72.591 230.585 71.464 267.206 91.888"/><polyline fill="#ffda58" points="261.461 95.311 223.978 74.406 223.01 74.984 260.493 95.89"/><polyline fill="#febd57" points="260.51 97.017 223.027 76.112 223.01 74.984 260.493 95.89"/><g><polygon fill="#fd9c3d" points="284.538 110.418 284.521 109.291 285.49 108.713 285.506 109.84"/></g></g></g><g><polygon fill="#ffda58" points="291.324 105.339 290.455 104.854 290.57 112.664 283.864 116.67 284.734 117.155 291.439 113.149"/></g><g><polygon fill="#fd9c3d" points="292.202 104.713 284.528 109.296 284.661 118.233 292.335 113.65"/></g><g><polygon fill="#ffda58" points="284.528 109.295 284.644 117.105 283.774 116.62 283.659 108.81 290.365 104.804 291.234 105.289"/></g></g></g></g><g><polygon fill="#ffda58" points="145.672 82.881 148.605 81.177 163.12 89.557 160.187 91.261"/><polygon fill="#fd9c3d" points="160.187 91.261 163.12 89.557 169.219 98.228 166.286 99.932"/><polygon fill="#fd9c3d" points="192.232 114.912 195.165 113.208 195.083 151.889 192.15 153.594"/><polygon fill="#ffda58" points="166.286 99.932 169.219 98.228 195.165 113.208 192.232 114.912"/><path fill="#ffcfc5" d="M173.581,109.545c-0.285,1.035-1.014,1.605-2.365,1.073c-1.735-0.683-2.061-2.421-2.344-3.776
							c-0.056,0.203-2.628,0.357-2.629,0.611c-0.005,1.556,1.975,6.545,3.329,7.327c1.353,0.782,4.616-2.105,4.62-3.66
							C174.193,110.86,173.638,109.818,173.581,109.545z"/><path fill="#febd57" d="M166.282,99.935l-6.096-8.672l-14.51-8.379l-0.107,43.816l46.579,26.897l0.08-38.681
								L166.282,99.935z M170.361,111.939c-1.102-0.64-1.999-2.195-1.999-3.465c0.009-1.279,0.906-1.786,2.017-1.146
								c1.102,0.64,1.999,2.186,1.999,3.465C172.369,112.064,171.471,112.579,170.361,111.939z"/><path fill="#ce296e" d="M169.092,129.478l-1.584-0.914c-0.133,0.551-0.351,1.015-0.635,1.388l1.117,1.933l-1.817,1.037
							l-1.117-1.934c-0.468,0.054-0.981,0.006-1.527-0.157l-0.005,1.821l-2.561-1.479l0.005-1.821
							c-0.545-0.466-1.059-1.011-1.525-1.604l-1.124,0.64l-1.802-3.127l1.123-0.64c-0.283-0.701-0.496-1.413-0.626-2.116
							l-1.585-0.915l0.008-2.943l1.585,0.915c0.133-0.55,0.35-1.016,0.636-1.387l-1.116-1.933l1.814-1.037l1.117,1.934
							c0.468-0.058,0.983-0.008,1.529,0.155l0.005-1.82l2.561,1.479l-0.005,1.82c0.545,0.466,1.057,1.01,1.523,1.607l1.124-0.64
							l1.806,3.127l-1.124,0.64c0.281,0.7,0.495,1.413,0.625,2.116l1.584,0.914L169.092,129.478z M162.256,127.464
							c1.634,0.944,2.963,0.186,2.969-1.692c0.005-1.878-1.315-4.165-2.949-5.109c-1.635-0.944-2.963-0.187-2.969,1.692
							C159.301,124.233,160.621,126.52,162.256,127.464"/><path fill="#2e4384" d="M177.763,127.041l-1.093-0.631c-0.092,0.38-0.242,0.701-0.438,0.958l0.771,1.334l-1.254,0.715
							l-0.771-1.335c-0.323,0.038-0.677,0.004-1.053-0.109l-0.004,1.257l-1.767-1.02l0.004-1.257
							c-0.376-0.322-0.731-0.698-1.052-1.107l-0.775,0.442l-1.244-2.158l0.775-0.441c-0.196-0.484-0.342-0.976-0.432-1.46
							l-1.094-0.632l0.006-2.031l1.094,0.631c0.092-0.38,0.241-0.701,0.439-0.957l-0.77-1.334l1.252-0.716l0.771,1.335
							c0.323-0.04,0.678-0.006,1.055,0.107l0.004-1.256l1.767,1.02l-0.004,1.256c0.376,0.322,0.729,0.697,1.051,1.109l0.776-0.442
							l1.246,2.158l-0.776,0.442c0.194,0.483,0.342,0.975,0.431,1.46l1.093,0.631L177.763,127.041z M173.046,125.651
							c1.128,0.651,2.045,0.129,2.049-1.168c0.004-1.296-0.908-2.874-2.035-3.526c-1.128-0.651-2.045-0.129-2.049,1.167
							C171.007,123.421,171.918,125,173.046,125.651"/></g><g><path fill="#385089" d="M169.957,109.54c-0.811,1.3-2.243,2.173-3.885,2.173c-1.501,0-2.863-0.72-3.711-1.894
					c-0.131-0.181-0.348-0.279-0.571-0.279c-0.589,0-0.925,0.67-0.579,1.146c1.114,1.533,2.896,2.471,4.86,2.471
					c2.467,0,4.59-1.491,5.523-3.616H169.957z"/></g><g><path fill="#00ddc4" d="M144.171,51.275l-0.074,24.549c0,0.769-0.267,1.317-0.711,1.569l-3.587,2.094
								c0.429-0.252-24.313-43.102-24.757-42.85l3.587-2.079c0.444-0.267,1.066-0.222,1.747,0.163l21.351,12.334
								C143.075,47.825,144.171,49.72,144.171,51.275z"/><path fill="#00af9a" d="M138.136,49.142l-21.355-12.329c-1.352-0.781-2.452-0.153-2.456,1.399l-0.07,24.55
							c-0.004,1.554,1.089,3.447,2.44,4.227l21.355,12.33c1.352,0.78,2.452,0.153,2.456-1.4l0.07-24.55
							C140.581,51.816,139.488,49.923,138.136,49.142z"/><path fill="#1e3063" d="M126.723,48.602c2.426,1.401,4.387,4.796,4.379,7.583c-0.006,2.047-1.072,3.194-2.598,3.108
								l2.148,9.478l-7.957-4.594l2.194-6.971c-1.521-1.673-2.578-4.046-2.572-6.093C122.324,48.326,124.298,47.202,126.723,48.602z
								"/></g><g><path fill="#ff65a7" d="M104.058,76.496l-0.074,24.549c0,0.769-0.267,1.317-0.711,1.569l-3.587,2.094
								c0.429-0.252-24.313-43.102-24.757-42.85l3.587-2.079c0.444-0.267,1.066-0.222,1.747,0.163l21.351,12.334
								C102.963,73.046,104.058,74.941,104.058,76.496z"/><path fill="#ee428c" d="M98.024,74.363c1.352,0.781,2.445,2.674,2.44,4.227l-0.07,24.55
								c-0.004,1.554-1.104,2.18-2.456,1.4L76.583,92.211c-1.352-0.781-2.445-2.674-2.44-4.227l0.07-24.55
								c0.004-1.553,1.104-2.18,2.456-1.399L98.024,74.363z"/><path fill="#d0ddff" d="M87.447,73.967l-0.028,10.001l6.695,10.716c1.101-1.125,1.707-2.928,1.713-5.131
								C95.842,83.993,92.201,77.279,87.447,73.967z"/><path fill="#febd57" d="M80.639,88.595c1.696,2.663,3.853,4.833,6.102,6.132c2.299,1.327,4.533,1.614,6.193,0.809
								L86.508,85.25L80.639,88.595z"/><path fill="#385089" d="M77.382,78.517c-0.007,2.584,0.789,5.53,2.248,8.332l6.162-3.512l0.029-10.341
								c-1.224-0.61-2.4-0.916-3.468-0.916c-0.89,0-1.705,0.213-2.411,0.64C78.299,73.714,77.39,75.773,77.382,78.517z"/></g><g><path fill="#62a1f0" d="M161.075,231.149c0.005,0.51,0.334,1.021,1.022,1.411l21.377,12.313
						c1.341,0.78,3.531,0.779,4.876,0.001l21.211-12.36c0.666-0.386,1-0.904,1.002-1.402l-0.016,4.154
						c0.005,0.51-0.336,1.016-1.002,1.401l-21.211,12.361c-1.346,0.779-3.535,0.78-4.876-0.001l-21.37-12.3
						c-0.674-0.397-1.024-0.913-1.016-1.431L161.075,231.149z"/><path fill="#4684ce" d="M183.466,244.872c1.353,0.779,3.539,0.777,4.881-0.005l21.213-12.357
							c1.342-0.782,1.334-2.048-0.019-2.827l-21.368-12.306c-1.353-0.779-3.539-0.777-4.881,0.005l-21.213,12.357
							c-1.342,0.782-1.333,2.048,0.019,2.827L183.466,244.872z"/><path fill="#fff" d="M174.826,233.779l1.598-0.931c-0.046-0.013-0.097-0.036-0.155-0.07
						c-0.716-0.412-0.746-0.808-0.093-1.188l3.728-2.172c0.802-0.467,0.889-0.961,0.265-1.479c0.886,0.365,1.733,0.315,2.535-0.152
						l4.037-2.351c0.299-0.174,0.587-0.246,0.869-0.217c0.282,0.029,0.659,0.18,1.133,0.453l1.598-0.931l-0.588-0.339
						c-1.571-0.905-3.111-0.916-4.623-0.035l-3.712,2.162c-0.378,0.22-0.715,0.335-1.007,0.346c-0.293,0.011-0.59-0.071-0.89-0.243
						l-0.416-0.239l-1.598,0.931l0.416,0.239c0.3,0.173,0.44,0.346,0.417,0.519c-0.022,0.173-0.227,0.373-0.617,0.6l-3.573,2.081
						c-1.512,0.881-1.484,1.773,0.087,2.677L174.826,233.779z"/><path fill="#fff" d="M181.887,237.846c1.571,0.905,3.111,0.916,4.623,0.035l3.573-2.081
						c0.39-0.227,0.734-0.347,1.033-0.361c0.3-0.013,0.598,0.066,0.898,0.239l0.416,0.239l1.598-0.931l-0.416-0.239
						c-0.3-0.173-0.441-0.343-0.425-0.514c0.016-0.169,0.212-0.365,0.591-0.585l3.711-2.162c1.512-0.881,1.484-1.773-0.087-2.677
						l-0.588-0.339l-1.598,0.931c0.474,0.273,0.736,0.49,0.788,0.654c0.053,0.164-0.069,0.331-0.367,0.505l-4.037,2.351
						c-0.801,0.467-0.885,0.957-0.25,1.468c-0.898-0.358-1.749-0.304-2.551,0.163l-3.728,2.172
						c-0.355,0.207-0.704,0.301-1.051,0.281c-0.345-0.02-0.61-0.084-0.794-0.19l-0.051-0.03l-0.278-0.199l-1.598,0.931
						L181.887,237.846z"/></g><g><path fill="#293a72" d="M127.907,197.538l-0.022,7.376c0,0.524-0.347,1.044-1.031,1.444l-14.715,8.551
									c-1.387,0.804-3.635,0.804-5.026,0.005l-14.813-8.551c-0.702-0.404-1.053-0.938-1.049-1.466l0.018-7.376
									c0,0.533,0.351,1.062,1.053,1.466l14.808,8.555c1.391,0.8,3.644,0.8,5.026-0.004l14.715-8.551
									C127.56,198.587,127.907,198.062,127.907,197.538z"/><path fill="#385089" d="M126.859,196.075c1.39,0.803,1.398,2.107,0.014,2.911l-14.715,8.552
									c-1.384,0.804-3.636,0.804-5.026,0.002l-14.812-8.552c-1.393-0.804-1.401-2.108-0.016-2.913l14.715-8.552
									c1.384-0.804,3.636-0.804,5.029,0L126.859,196.075z"/><path fill="#aec7f4" d="M126.282,189.445l-0.02,6.824c0,0.478-0.316,0.952-0.94,1.316l-13.41,7.793
							c-1.264,0.733-3.313,0.733-4.581,0.004l-13.5-7.793c-0.64-0.368-0.96-0.855-0.956-1.337l0.016-6.824
							c0,0.486,0.32,0.968,0.96,1.337l13.496,7.797c1.268,0.729,3.321,0.729,4.581-0.004l13.41-7.793
							C125.966,190.401,126.282,189.923,126.282,189.445z"/><path fill="#293a72" d="M127.907,185.584l-0.022,7.376c0,0.524-0.347,1.044-1.031,1.444l-14.715,8.551
									c-1.387,0.804-3.635,0.804-5.026,0.005l-14.813-8.551c-0.702-0.404-1.053-0.938-1.049-1.467l0.018-7.376
									c0,0.533,0.351,1.062,1.053,1.467l14.808,8.555c1.391,0.8,3.644,0.8,5.026-0.004l14.715-8.551
									C127.56,186.632,127.907,186.108,127.907,185.584z"/><path fill="#385089" d="M126.859,184.121c1.39,0.803,1.398,2.107,0.014,2.911l-14.715,8.552
									c-1.384,0.804-3.636,0.804-5.026,0.002l-14.812-8.552c-1.393-0.804-1.401-2.108-0.016-2.913l14.715-8.552
									c1.384-0.804,3.636-0.804,5.029,0L126.859,184.121z"/><g><path fill="#aec7f4" d="M126.282,177.491l-0.02,6.824c0,0.478-0.316,0.952-0.94,1.316l-13.41,7.793
							c-1.264,0.733-3.313,0.733-4.581,0.004l-13.5-7.793c-0.64-0.368-0.96-0.855-0.956-1.337l0.016-6.824
							c0,0.486,0.32,0.968,0.96,1.336l13.496,7.797c1.268,0.729,3.321,0.729,4.581-0.004l13.41-7.793
							C125.966,178.447,126.282,177.969,126.282,177.491z"/><path fill="#293a72" d="M127.907,173.629l-0.022,7.376c0,0.524-0.347,1.045-1.031,1.444L112.138,191
									c-1.387,0.804-3.635,0.804-5.026,0.005l-14.813-8.551c-0.702-0.404-1.053-0.938-1.049-1.467l0.018-7.376
									c0,0.533,0.351,1.062,1.053,1.466l14.808,8.555c1.391,0.8,3.644,0.8,5.026-0.004l14.715-8.551
									C127.56,174.678,127.907,174.154,127.907,173.629z"/><path fill="#385089" d="M126.859,172.167c1.39,0.803,1.398,2.107,0.014,2.911l-14.715,8.552
									c-1.384,0.804-3.636,0.804-5.026,0.002l-14.812-8.552c-1.393-0.804-1.401-2.108-0.016-2.913l14.715-8.552
									c1.384-0.804,3.636-0.804,5.029,0L126.859,172.167z"/></g><g><path fill="#aec7f4" d="M121.088,172.346l-0.014,1.241c0,0.329-0.218,0.656-0.647,0.907l-9.241,5.37
								c-0.871,0.505-2.283,0.505-3.157,0.003l-9.302-5.37c-0.441-0.254-0.661-0.589-0.659-0.921l0.011-1.241
								c0,0.335,0.221,0.667,0.661,0.921l9.299,5.372c0.873,0.502,2.288,0.502,3.157-0.003l9.241-5.37
								C120.87,173.005,121.088,172.675,121.088,172.346z"/><path fill="#d0ddff" d="M120.43,171.428c0.873,0.504,0.878,1.323,0.008,1.828l-9.241,5.37
								c-0.869,0.505-2.283,0.505-3.156,0.001l-9.301-5.37c-0.875-0.505-0.88-1.324-0.01-1.829l9.241-5.37
								c0.869-0.505,2.283-0.505,3.158,0L120.43,171.428z"/></g></g><g><path fill="#c2d3f9" d="M218.466,179.251l-0.066,17.129c-0.001,0.351-0.123,0.598-0.321,0.713l1.306-0.758
						c0.198-0.115,0.32-0.363,0.321-0.714l0.066-17.129L218.466,179.251z"/><path fill="#fff" d="M218.466,179.251l-0.066,17.128c-0.002,0.702-0.486,0.988-1.097,0.636l-25.579-14.768
							c-0.601-0.347-1.091-1.196-1.089-1.898l0.066-17.128L218.466,179.251z"/><polygon fill="#aec7f4" points="197.669 170.891 197.663 173.19 193.955 171.049 193.961 168.75"/><polygon fill="#aec7f4" points="199.166 182.278 199.159 184.573 193.925 181.551 193.931 179.255"/><polygon fill="#aec7f4" points="203.705 179.637 203.699 181.933 193.94 176.299 193.946 174.003"/><polygon fill="#aec7f4" points="209.396 177.661 209.389 179.96 200.28 174.701 200.286 172.402"/><polygon fill="#aec7f4" points="210.259 188.682 210.253 190.978 201.363 185.845 201.369 183.55"/><polygon fill="#aec7f4" points="215.24 186.297 215.234 188.593 205.883 183.194 205.889 180.898"/><polygon fill="#aec7f4" points="215.255 181.044 215.248 183.343 210.916 180.842 210.922 178.543"/><polygon fill="#aec7f4" points="215.225 191.549 215.219 193.845 211.563 191.734 211.569 189.439"/><g><path fill="#ff65a7" d="M219.786,174.009l-0.015,4.488l-1.306,0.76l0.015-4.488c0-0.694-0.478-1.527-1.095-1.882
								l-25.575-14.774c-0.308-0.169-0.571-0.185-0.771-0.077l1.306-0.759c0.201-0.109,0.463-0.093,0.771,0.077l25.575,14.774
								C219.308,172.483,219.786,173.316,219.786,174.009z"/><path fill="#ce296e" d="M217.39,172.883c0.611,0.352,1.091,1.197,1.089,1.887l-0.013,4.481l-27.766-16.031
								l0.013-4.481c0.002-0.69,0.496-0.972,1.097-0.625L217.39,172.883z"/></g><g><path fill="#fff" d="M216.475,174.361c0.485,0.28,0.868,0.944,0.867,1.492c-0.002,0.557-0.387,0.777-0.872,0.497
							c-0.477-0.275-0.86-0.939-0.858-1.496C215.612,174.306,215.998,174.086,216.475,174.361z"/><path fill="#fff" d="M211.049,171.229c0.477,0.275,0.86,0.939,0.858,1.487c-0.002,0.557-0.387,0.777-0.864,0.502
								c-0.485-0.28-0.868-0.944-0.867-1.501C210.178,171.169,210.564,170.949,211.049,171.229z"/><path fill="#fff" d="M213.757,172.793c0.485,0.28,0.868,0.944,0.867,1.492c-0.002,0.557-0.387,0.777-0.872,0.497
								c-0.477-0.275-0.86-0.939-0.858-1.496C212.895,172.738,213.281,172.518,213.757,172.793z"/></g></g><g><path fill="#ffaa83" d="M78.885,81.066c0,0-8.569,2.541-8.599,3.03c0.007,0.175-0.34,9.025-0.183,11.032
													c0.231,3.272,8.835,1.661,7.602-0.538c-0.797-1.445-1.698-2.459-0.898-3.259c0.523-0.523,0.853-0.073,1.476-0.56
													C81.221,88.431,78.885,81.066,78.885,81.066z"/><path fill="#2d3a74" d="M73.383,79.391c14.213-1.732,5.025,5.403,2.453,6.833c-0.57,0.315-0.448,0.831-0.714,2.07
												l-0.549,0.08c0.028-0.601-0.013-2.046-1.139-1.467c-1.403,0.721-1.226,3.734-3.593,3.12c0,0-0.926-0.118-1.049-1.608
												c-0.124-1.488-0.749-2.719-0.704-3.508C68.132,84.123,67.609,80.096,73.383,79.391z"/><path fill="#66331f" d="M70.821,92.503c-1.075-0.296-1.494-0.61-1.685-1.138c0,0-7.197,0.71-3.749,8.741
												c1.739,4.05,7.455,11.599,9.204,16.256L70.821,92.503z"/><path fill="#7c4732" d="M80.289,96.463c-0.993-0.749-2.032-1.623-2.855-2.611
												c-0.577-0.694-1.481-1.007-2.379-0.926c-1.901,0.172-4.566,0.133-4.969-1.712c0,0-6.589-0.416-4.205,8.076
												c2.384,8.492,2.696,15.049,1.847,18.198c0,0,9.154,12.726,15.001,2.118c0,0-0.013-13.192,0.533-15.676
												C83.74,101.763,83.838,99.141,80.289,96.463z"/><path fill="#293a72" d="M73.616,163.486c0,0,1.593,0.505,6.862-1.403c2.716-0.979,4.336,0.334,5.479,0.889
												c0.832,0.401,0.923,1.565,0.182,1.957c-2.595,1.362-7.006,3.838-10.141,4.691
												C71.85,170.747,73.616,163.486,73.616,163.486z"/><path fill="#293a72" d="M78.185,157.368c-1.143-0.532-0.545-0.794-6.219-1.196
												c-5.625-0.399-6.121,1.955-6.121,1.955s-1.766,7.303,2.382,6.093c3.135-0.914,7.546-3.479,10.141-4.895
												C79.108,158.919,79.017,157.756,78.185,157.368z"/><path fill="#5b93e0" d="M82.73,119.606c-2.58,4.791-15.001-2.118-15.001-2.118s-0.401,0.934-0.876,1.711
												c-1.153,1.88-3.138,4.481-0.621,15.073c2.035,8.565-1.199,14.904-0.385,23.818c0,0,3.908,2.284,6.12-1.917
												c0,0-0.23-11.252,0.369-13.632c0.132-0.524,0.817-6.781,1.621-9.525c0.379,1.866,0.595,3.665,0.714,7.009
												c0.105,2.948,0.055,4.854-0.155,7.797c-0.411,5.763-0.897,15.617-0.897,15.617c5.081,1.948,6.86-1.352,6.86-1.352
												l0.202-11.929c0.077-4.19,0.134-7.449,1.253-11.487C85.46,125.935,82.73,119.606,82.73,119.606z"/><g><path fill="#ffaa83" d="M82.329,108.538c1.707,1.121,2.804,0.95,5.412,2.121c1.78,0.78,3.852,0.414,5.242-0.951
								c2.072-2.024,4.998-4.047,5.534-4.315c0.366-0.146,0.731-0.269,1.121-0.317c1.268-0.098,2.779-1.219,2.779-1.219
								c0.366-0.464,0.658-2.95,0.073-2.633c-0.561,0.317-1.707,0.975-2.438,1.389c0.268-0.537,0.414-1.073,0.488-1.414
								c0.049-0.219,0-0.414-0.146-0.585c-0.146-0.146-0.39-0.123-0.488,0.073c-0.146,0.366-0.414,0.83-0.707,1.121
								c-0.488,0.512-0.804,1.365-0.804,1.365s-0.024,0.074-0.024,0.171c-1.926,0.633-6.192,2.096-7.192,2.9
								c-1.804,1.439-4.071-1.389-4.218-1.584c0,0-0.585-0.365-1.17-1.292c-0.829,1-1.853,0.414-3.072,1.048
								c-0.341,0.195-0.561,0.293-0.707,0.367C81.427,105.345,81.621,105.784,82.329,108.538z"/><path fill="#66331f" d="M86.962,104.664c-1.009-1.936-2.66-4.255-3.272-5.076c-1.648-2.209-4.926-2.491-5.917-0.945
									c-0.996,1.544-0.989,3.887,0.659,6.092c0.539,0.724,2.424,2.534,3.891,3.796C83.268,104.782,86.944,104.664,86.962,104.664z
									"/></g><g><path fill="#62a1f0" d="M71.382,119.237c3.879,1.664,9.671,3.482,11.348,0.37c0,0,2.73,6.328-0.797,19.06
						c-1.119,4.041-1.176,7.297-1.253,11.487l-0.202,11.929c0,0-1.779,3.301-6.86,1.353c0,0,0.487-9.855,0.898-15.618
						c0.21-2.941,0.26-4.844,0.155-7.793c-0.119-3.342-0.335-5.142-0.714-7.009C73.955,133.015,68.433,126.683,71.382,119.237z"/></g></g><g><path fill="#ffaa83" d="M146.384,192.151c0,0,0.394,3.632-1.529,10.319c-1.923,6.687,0.381,16.298,1.741,15.307
							c0,0-0.962,1.349-2.391,0.4c-2.244-1.49-1.869-2.71-2.125-3.439c-0.256-0.73-1.474-2.733-1.474-2.733
							s-0.117-1.542-0.564-2.478c-0.447-0.937-0.988-12.797,1.492-16.955C144.015,188.414,146.384,192.151,146.384,192.151z"/><path fill="#ed9871" d="M141.535,192.572c2.481-4.158,4.849-0.421,4.849-0.421s0.057,0.534,0.02,1.563
								c-0.797-0.856-2.573-2.11-4.411,0.971c-2.025,3.394-2.036,11.92-1.729,15.447c-0.064-0.213-0.135-0.422-0.222-0.605
								C139.596,208.59,139.054,196.73,141.535,192.572z"/><g><path fill="#ffaa83" d="M152.827,195.546c0,0,0.394,3.632-1.529,10.319c-1.923,6.687,0.381,16.298,1.741,15.307
							c0,0-0.962,1.349-2.391,0.4c-2.244-1.49-1.869-2.71-2.125-3.439c-0.256-0.73-1.474-2.733-1.474-2.733
							s-0.117-1.542-0.564-2.478c-0.447-0.937-0.988-12.797,1.492-16.955C150.458,191.809,152.827,195.546,152.827,195.546z"/><path fill="#ed9871" d="M147.978,195.967c2.481-4.158,4.85-0.421,4.85-0.421s0.057,0.534,0.021,1.563
								c-0.797-0.856-2.573-2.11-4.411,0.971c-2.025,3.394-2.036,11.92-1.729,15.447c-0.064-0.213-0.135-0.422-0.222-0.605
								C146.038,211.985,145.497,200.124,147.978,195.967z"/></g><g><path fill="#6e6fdb" d="M155.353,179.954c-0.249-1.033-0.525-1.99-0.808-2.864l-15.25-2.847
					c-0.947,2.902-0.869,5.402,0.344,8.529c1.485,3.826,1.257,9.333,1.126,11.207c-0.029,0.418,0.153,0.818,0.488,1.069
					c2.159,1.621,10.125,7.206,12.06,2.919C155.559,192.994,156.57,185.014,155.353,179.954z"/></g></g><g><path fill="#ffaa83" d="M151.156,168.793c-0.013-0.018-0.024-0.038-0.037-0.056c-1.012-1.479-2.356-2.66-3.723-3.817
								c-1.889-1.596-0.771-4.06-0.684-4.292c0,0-1.34-0.753-1.212-1.002l-4.153,2.077c0.173,0.955,0.392,1.996,0.567,3.311
								c0.123,0.921,1.817,2.387,3.692,3.779H151.156z"/><path fill="#8ca8f7" d="M142.347,151.51c-1.566,0.81-2.711,2.756-2.455,5.362c0.083,0.855,0.725,3.245,1.297,4.983
								c1.071,0.079,4.846,0.308,5.667-1.017c0.131-2.081-0.072-4.783-0.166-5.752C146.435,152.477,143.911,150.697,142.347,151.51z
								"/><g><path fill="#00ddc4" d="M155.042,156.606c-2.355-0.983-0.184-3.046-2.02-3.681c-1.836-0.636-4.505-1.466-4.505-1.466
								s-2.11,0.777-4.652-1.059c0,0-3.602-1.484-3.602,1.836c0,3.319-0.565,4.096,2.119,8.828c2.415,4.259,0.935,7.024-0.513,8.839
								c-0.555,0.696-1.075,1.417-1.52,2.187c-0.355,0.616-0.741,1.361-1.053,2.153c0,0,8.89,6.372,15.462,3.919
								c0,0-0.103-2.642-0.363-4.974c-0.239-2.14-1.861-8.602,1.273-10.68C157.002,161.624,157.491,157.628,155.042,156.606z"/><path fill="#00bfad" d="M154.757,178.162c0,0-0.862-3.682-1.123-6.014c-0.239-2.141-2.609-9.395,0.525-11.473
									c0.956-0.634,2.205-2.062,1.524-3.651c1.679,1.406,1.182,4.69-0.016,5.485c-3.134,2.078-1.512,8.54-1.273,10.68
									C154.655,175.52,154.757,178.162,154.757,178.162z"/></g><g><path fill="#ffaa83" d="M154.804,156.375c1.404-2.133,8.471,0.494,11.554,1.776c0.891,0.374,1.912,0.189,2.606-0.485
								l4.334-3.226c0.015-0.039,0.659-0.349,0.693-0.719c0.002-0.013,0.003-0.027,0.004-0.04c0.062-1.15,0.539-2.238,1.426-2.974
								c0.353-0.292,0.857-1.057,1.141-1.25c0,0,0.488-0.08,0.059,1.466c0.046-0.089,0.125-0.21,0.338-0.49
								c1.08-1.424,1.995-1.741,2.05-1.765c0,0,0.097,0.039,0.142,0.214c0.055,0.202-0.025,0.577-0.618,1.223
								c0.054-0.024,1.223-1.098,1.303-0.615c0.028,0.101,0.021,0.233-0.072,0.467c0,0-0.054,0.137-0.504,0.479
								c0.249-0.173,0.566-0.198,0.611-0.023c0.007,0.093-0.798,1.415-0.896,1.49c0.23-0.067,0.763-0.218,0.804,0.024
								c0.008,0.093-0.035,0.257-0.181,0.515c-0.581,0.9-2.112,2.44-3.663,2.71c-0.416,0.084-1.231,1.004-1.231,1.004l-5.192,6.08
								c-0.548,0.528-1.307,0.793-2.071,0.674c-2.993-0.479-9.88-2.02-11.212-2.589C156.229,160.322,152.974,159.13,154.804,156.375
								z"/><path fill="#00ddc4" d="M161.222,156.163c-1.806-0.86-7.301-2.975-8.2-3.238c-2.424-0.707-2.662,1.787-2.534,3.465
									c0.123,1.679,1.421,3.389,3.843,4.094c0.794,0.232,4.308,1.095,6.077,1.209
									C161.861,159.267,161.209,156.173,161.222,156.163z"/><g><path fill="#ffaa83" d="M152.957,141.938c0,0-0.27,1.138,0,2.07c0.27,0.932,0.818,3.016-2.527,6.689
								c-3.345,3.674-0.932-8.334-0.932-8.334L152.957,141.938z"/><path fill="#ee428c" d="M152.026,150.36c-0.502-0.369-0.728-1.013-0.571-1.616c0.147-0.565,0.363-1.358,0.413-2.407
									c0.028-0.594,0.172-1.174,0.407-1.72c0.769-1.786,2.001-5.857-2.287-6.682c0,0-2.726-1.722-5.588,0.236
									c-1.446,0.989-2.35,2.589-2.563,4.328c-0.029,0.236-0.05,0.471-0.056,0.691c-0.034,1.132-1.202,2.918-1.854,3.502
									c-0.364,0.325-0.418,1.046-0.192,1.745c0.26,0.805,0.008,1.695-0.662,2.213c-0.814,0.628-0.273,11.434,3.298,11.399
									c0,0,2.885,2.61,5.494,0.412c0,0,3.289-3.569,4.307-7.326C152.457,154.089,154.422,152.125,152.026,150.36z"/></g></g></g><g><path fill="#ce296e" d="M139.381,220.294h0.853c0.087-0.4,0.217-1.128,0.287-2.285c0.122-1.943,0.796-0.902,0.796-0.902
				s0.006,0.451,2.06,2.503c0.405,0.415,0.845,0.611,1.284,0.684h0.707c1.488-0.226,2.807-1.695,2.807-1.695
				c0.501-1.725-1.662-0.786-1.662-0.786c-2.38,1.492-3.397-0.568-3.803-1.717c-0.406-1.157-1.668-4.352-1.668-4.352
				c-2.376,1.186-1.982,4.41-1.677,4.854C139.624,216.968,139.447,219.45,139.381,220.294z"/></g><g><path fill="#ee428c" d="M145.824,223.689h0.853c0.087-0.4,0.217-1.128,0.287-2.285c0.122-1.943,0.796-0.902,0.796-0.902
				s0.006,0.451,2.06,2.503c0.405,0.415,0.845,0.611,1.284,0.684h0.707c1.488-0.226,2.808-1.696,2.808-1.696
				c0.501-1.725-1.662-0.786-1.662-0.786c-2.38,1.492-3.397-0.568-3.803-1.717c-0.406-1.157-1.668-4.352-1.668-4.352
				c-2.376,1.186-1.982,4.41-1.677,4.854C146.067,220.363,145.89,222.844,145.824,223.689z"/></g><g><path fill="#9999ef" d="M143.405,130.951l-0.053,5.014c0,0.548-0.19,0.939-0.507,1.118l-0.981,0.579
									c0.306-0.179-24.981-22.655-25.298-22.476l0.98-0.568c0.317-0.19,0.76-0.158,1.246,0.116l22.87,13.209
									C142.624,128.491,143.405,129.842,143.405,130.951z"/><path fill="#6e6fdb" d="M140.68,128.516c0.964,0.556,1.743,1.906,1.74,3.013l-0.05,5.014
									c-0.003,1.107-0.787,1.555-1.751,0.998l-22.873-13.206c-0.964-0.556-1.743-1.906-1.74-3.014l0.05-5.014
									c0.003-1.107,0.787-1.554,1.751-0.998L140.68,128.516z"/><path fill="#ffcfc5" d="M133.608,140.219l-0.053,5.014c0,0.548-0.19,0.939-0.507,1.118l-0.98,0.579
									c0.306-0.179-24.981-22.656-25.298-22.476l0.98-0.568c0.317-0.19,0.76-0.158,1.246,0.116l22.87,13.209
									C132.827,137.76,133.608,139.11,133.608,140.219z"/><path fill="#eda198" d="M130.883,137.785c0.964,0.556,1.743,1.906,1.74,3.013l-0.05,5.014
									c-0.003,1.107-0.787,1.554-1.751,0.998l-22.873-13.206c-0.964-0.556-1.743-1.906-1.74-3.013l0.05-5.014
									c0.003-1.107,0.787-1.554,1.751-0.997L130.883,137.785z"/><path fill="#ff65a7" d="M136.978,112.071l-0.053,5.014c0,0.548-0.19,0.939-0.507,1.118l-0.98,0.579
									c0.306-0.179-24.981-22.655-25.298-22.476l0.98-0.568c0.317-0.19,0.76-0.158,1.246,0.116l22.87,13.209
									C136.197,109.611,136.978,110.962,136.978,112.071z"/><path fill="#ce296e" d="M134.252,109.636c0.964,0.557,1.743,1.906,1.74,3.013l-0.05,5.014
									c-0.003,1.107-0.787,1.554-1.751,0.998l-22.873-13.206c-0.964-0.556-1.743-1.906-1.74-3.014l0.05-5.014
									c0.003-1.107,0.787-1.554,1.751-0.997L134.252,109.636z"/><g><polygon fill="#fff" points="113.814 133.171 113.81 134.77 109.343 132.191 109.347 130.592"/><polygon fill="#fff" points="118.027 132.308 118.023 133.908 109.352 128.902 109.357 127.302"/><polygon fill="#fff" points="123.994 139.048 123.99 140.648 115.747 135.889 115.752 134.289"/><polygon fill="#fff" points="130.465 142.784 130.461 144.383 125.556 141.551 125.56 139.952"/><polygon fill="#fff" points="130.474 139.495 130.47 141.094 119.877 134.978 119.882 133.379"/></g><g><polygon fill="#fff" points="128.105 123.256 128.1 124.857 119.43 119.851 119.434 118.25"/><polygon fill="#fff" points="140.552 130.443 140.548 132.044 129.955 125.928 129.96 124.327"/><polygon fill="#fff" points="123.892 124.12 123.888 125.72 119.421 123.141 119.425 121.541"/><polygon fill="#fff" points="134.072 129.998 134.068 131.597 125.825 126.838 125.829 125.239"/></g><g><polygon fill="#fff" points="127.44 108.798 127.435 110.398 119.192 105.64 119.197 104.039"/><polygon fill="#fff" points="117.631 103.135 117.627 104.736 112.722 101.904 112.726 100.303"/><polygon fill="#fff" points="123.31 109.708 123.305 111.309 112.712 105.193 112.717 103.592"/><polygon fill="#fff" points="133.844 112.495 133.84 114.096 129.372 111.517 129.377 109.916"/></g></g></g></svg>